<svg width="110" height="26" viewBox="0 0 110 26" fill="none" xmlns="http://www.w3.org/2000/svg">
<rect width="18" height="18" transform="translate(0 12.7279) rotate(-45)" fill="url(#paint0_linear_135478_3530)"/>
<rect width="18" height="18" transform="translate(7.48535 13.2131) rotate(-45)" fill="url(#paint1_linear_135478_3530)"/>
<path d="M42.3432 17.776C42.3432 18.28 42.2592 18.61 42.0912 18.766C41.9232 18.922 41.6232 19 41.1912 19C40.9152 19 40.7232 18.934 40.6152 18.802C40.5192 18.658 40.4712 18.442 40.4712 18.154V10.81C40.4712 10.522 40.5192 10.312 40.6152 10.18C40.7232 10.036 40.9152 9.964 41.1912 9.964C41.5872 9.964 41.8752 10.066 42.0552 10.27C42.2472 10.462 42.3432 10.762 42.3432 11.17V17.776ZM40.2552 7.678C40.2552 7.366 40.3632 7.102 40.5792 6.886C40.7952 6.67 41.0592 6.562 41.3712 6.562C41.6712 6.562 41.9292 6.67 42.1452 6.886C42.3732 7.102 42.4872 7.366 42.4872 7.678C42.4872 7.978 42.3732 8.242 42.1452 8.47C41.9292 8.686 41.6712 8.794 41.3712 8.794C41.0592 8.794 40.7952 8.686 40.5792 8.47C40.3632 8.242 40.2552 7.978 40.2552 7.678ZM45.3206 10.738C45.3206 10.45 45.3806 10.252 45.5006 10.144C45.6206 10.024 45.8186 9.964 46.0946 9.964C46.4306 9.964 46.6886 10.096 46.8686 10.36C47.0606 10.612 47.1566 10.996 47.1566 11.512V11.638H47.1926C47.5046 11.134 47.9306 10.732 48.4706 10.432C49.0106 10.12 49.6346 9.964 50.3426 9.964C52.0346 9.964 52.8806 10.87 52.8806 12.682V18.154C52.8806 18.442 52.8266 18.658 52.7186 18.802C52.6226 18.934 52.4366 19 52.1606 19C51.7526 19 51.4586 18.886 51.2786 18.658C51.0986 18.43 51.0086 18.052 51.0086 17.524V13.024C51.0086 12.364 50.8646 11.89 50.5766 11.602C50.3006 11.314 49.9346 11.17 49.4786 11.17C49.1426 11.17 48.7946 11.266 48.4346 11.458C48.0746 11.638 47.7746 11.89 47.5346 12.214C47.3066 12.526 47.1926 12.868 47.1926 13.24V17.722C47.1926 18.238 47.1026 18.58 46.9226 18.748C46.7546 18.916 46.4606 19 46.0406 19C45.7646 19 45.5726 18.934 45.4646 18.802C45.3686 18.658 45.3206 18.442 45.3206 18.154V10.738ZM59.02 19C58 19 57.286 18.754 56.878 18.262C56.482 17.758 56.284 17.056 56.284 16.156V10.846H55.204C55.06 10.846 54.946 10.81 54.862 10.738C54.778 10.666 54.736 10.564 54.736 10.432C54.736 10.336 54.766 10.264 54.826 10.216C54.898 10.156 55.024 10.09 55.204 10.018C55.444 9.91 55.648 9.802 55.816 9.694C55.984 9.586 56.164 9.43 56.356 9.226C56.608 8.962 56.842 8.626 57.058 8.218C57.178 8.014 57.274 7.876 57.346 7.804C57.43 7.732 57.538 7.696 57.67 7.696C57.874 7.696 58.006 7.768 58.066 7.912C58.126 8.056 58.156 8.314 58.156 8.686V9.964H60.334C60.466 9.964 60.568 10.012 60.64 10.108C60.724 10.192 60.766 10.294 60.766 10.414C60.766 10.534 60.724 10.636 60.64 10.72C60.568 10.804 60.466 10.846 60.334 10.846H58.156V16.57C58.156 17.134 58.258 17.548 58.462 17.812C58.678 18.076 58.936 18.208 59.236 18.208C59.596 18.208 59.872 18.118 60.064 17.938C60.256 17.758 60.442 17.506 60.622 17.182C60.742 16.954 60.85 16.786 60.946 16.678C61.054 16.57 61.186 16.516 61.342 16.516C61.486 16.516 61.6 16.558 61.684 16.642C61.768 16.714 61.81 16.816 61.81 16.948C61.81 17.044 61.78 17.164 61.72 17.308C61.66 17.44 61.6 17.548 61.54 17.632C61.24 18.088 60.868 18.43 60.424 18.658C59.98 18.886 59.512 19 59.02 19ZM67.0081 19C65.7001 19 64.6861 18.622 63.9661 17.866C63.2461 17.11 62.8861 15.982 62.8861 14.482C62.8861 12.958 63.2521 11.824 63.9841 11.08C64.7161 10.336 65.7241 9.964 67.0081 9.964C68.2921 9.964 69.3001 10.336 70.0321 11.08C70.7641 11.824 71.1301 12.958 71.1301 14.482C71.1301 15.982 70.7701 17.11 70.0501 17.866C69.3301 18.622 68.3161 19 67.0081 19ZM67.0081 18.28C67.7161 18.28 68.2561 18.01 68.6281 17.47C69.0001 16.918 69.1861 15.922 69.1861 14.482C69.1861 13.066 68.9941 12.082 68.6101 11.53C68.2261 10.966 67.6921 10.684 67.0081 10.684C66.3361 10.684 65.8021 10.966 65.4061 11.53C65.0221 12.094 64.8301 13.078 64.8301 14.482C64.8301 15.91 65.0161 16.9 65.3881 17.452C65.7601 18.004 66.3001 18.28 67.0081 18.28ZM75.3352 15.94C75.3352 16.6 75.4732 17.074 75.7492 17.362C76.0372 17.65 76.4092 17.794 76.8652 17.794C77.2012 17.794 77.5492 17.704 77.9092 17.524C78.2692 17.332 78.5632 17.08 78.7912 16.768C79.0312 16.444 79.1512 16.096 79.1512 15.724V11.26C79.1512 10.744 79.2352 10.402 79.4032 10.234C79.5832 10.054 79.8832 9.964 80.3032 9.964C80.5792 9.964 80.7652 10.036 80.8612 10.18C80.9692 10.312 81.0232 10.522 81.0232 10.81V18.226C81.0232 18.514 80.9632 18.718 80.8432 18.838C80.7232 18.946 80.5252 19 80.2492 19C79.9012 19 79.6372 18.88 79.4572 18.64C79.2772 18.4 79.1872 18.004 79.1872 17.452V17.326H79.1512C78.8392 17.83 78.4132 18.238 77.8732 18.55C77.3332 18.85 76.7092 19 76.0012 19C74.3092 19 73.4632 18.094 73.4632 16.282V10.81C73.4632 10.522 73.5112 10.312 73.6072 10.18C73.7152 10.036 73.9072 9.964 74.1832 9.964C74.5912 9.964 74.8852 10.078 75.0652 10.306C75.2452 10.534 75.3352 10.912 75.3352 11.44V15.94ZM90.0606 16.732C90.1806 16.6 90.3306 16.534 90.5106 16.534C90.6186 16.534 90.7146 16.57 90.7986 16.642C90.8826 16.714 90.9246 16.804 90.9246 16.912C90.9246 17.128 90.8466 17.332 90.6906 17.524C89.8986 18.508 88.8126 19 87.4326 19C86.0046 19 84.9666 18.598 84.3186 17.794C83.6826 16.99 83.3646 15.892 83.3646 14.5C83.3646 12.928 83.7546 11.782 84.5346 11.062C85.3146 10.33 86.3466 9.964 87.6306 9.964C88.4226 9.964 89.1246 10.144 89.7366 10.504C90.3966 10.9 90.7266 11.362 90.7266 11.89C90.7266 12.106 90.6486 12.28 90.4926 12.412C90.3366 12.532 90.1626 12.592 89.9706 12.592C89.7066 12.592 89.4966 12.532 89.3406 12.412C89.1966 12.28 89.0826 12.088 88.9986 11.836C88.8786 11.488 88.7106 11.212 88.4946 11.008C88.2906 10.792 87.9906 10.684 87.5946 10.684C86.8146 10.684 86.2386 10.972 85.8666 11.548C85.4946 12.112 85.3086 13.096 85.3086 14.5C85.3086 15.736 85.4826 16.666 85.8306 17.29C86.1906 17.902 86.7906 18.208 87.6306 18.208C88.1946 18.208 88.6386 18.094 88.9626 17.866C89.2866 17.638 89.5386 17.41 89.7186 17.182C89.8986 16.942 90.0126 16.792 90.0606 16.732ZM94.6368 11.8C94.9728 11.26 95.3988 10.822 95.9148 10.486C96.4428 10.138 97.0548 9.964 97.7508 9.964C99.4428 9.964 100.289 10.87 100.289 12.682V18.154C100.289 18.442 100.235 18.658 100.127 18.802C100.031 18.934 99.8448 19 99.5688 19C99.1608 19 98.8668 18.886 98.6868 18.658C98.5068 18.43 98.4168 18.052 98.4168 17.524V13.024C98.4168 12.364 98.2728 11.89 97.9848 11.602C97.7088 11.314 97.3428 11.17 96.8868 11.17C96.5508 11.17 96.2028 11.278 95.8428 11.494C95.4828 11.71 95.1828 11.992 94.9428 12.34C94.7148 12.688 94.6008 13.048 94.6008 13.42V17.722C94.6008 18.238 94.5108 18.58 94.3308 18.748C94.1628 18.916 93.8688 19 93.4488 19C93.1728 19 92.9808 18.934 92.8728 18.802C92.7768 18.658 92.7288 18.442 92.7288 18.154V6.166C92.7288 5.878 92.7768 5.668 92.8728 5.536C92.9808 5.392 93.1728 5.32 93.4488 5.32C93.8568 5.32 94.1508 5.434 94.3308 5.662C94.5108 5.89 94.6008 6.268 94.6008 6.796V11.8H94.6368Z" fill="#030712"/>
<defs>
<linearGradient id="paint0_linear_135478_3530" x1="0" y1="9" x2="18" y2="9" gradientUnits="userSpaceOnUse">
<stop stop-color="#0024D6"/>
<stop offset="1" stop-color="#050215"/>
</linearGradient>
<linearGradient id="paint1_linear_135478_3530" x1="0" y1="9" x2="18" y2="9" gradientUnits="userSpaceOnUse">
<stop stop-color="#7582C2"/>
<stop offset="1" stop-color="#050215"/>
</linearGradient>
</defs>
</svg>
